<mxfile host="app.diagrams.net" modified="2023-12-18T18:27:54.709Z" agent="Mozilla/5.0 (Windows NT 10.0; Win64; x64) AppleWebKit/537.36 (KHTML, like Gecko) Chrome/120.0.0.0 Safari/537.36" etag="hOg6f0py09kwx4xxWSuE" version="21.8.0" type="device">
  <diagram name="PÃ¡gina-1" id="9HGHG4MrrWXb4wggSO1m">
    <mxGraphModel dx="1434" dy="780" grid="1" gridSize="10" guides="1" tooltips="1" connect="1" arrows="1" fold="1" page="1" pageScale="1" pageWidth="827" pageHeight="1169" math="0" shadow="0">
      <root>
        <mxCell id="0" />
        <mxCell id="1" parent="0" />
        <mxCell id="PoCtsGAYJzP5PrlAFtWP-1" value="&lt;font style=&quot;font-size: 18px;&quot;&gt;&lt;b style=&quot;&quot;&gt;&lt;font style=&quot;font-size: 23px;&quot;&gt;Youtube channel&lt;/font&gt;&lt;br&gt;&lt;br&gt;&lt;/b&gt;&lt;/font&gt;" style="rounded=1;whiteSpace=wrap;html=1;" vertex="1" parent="1">
          <mxGeometry x="130" y="80" width="160" height="110" as="geometry" />
        </mxCell>
        <mxCell id="PoCtsGAYJzP5PrlAFtWP-4" value="" style="endArrow=classic;html=1;rounded=0;" edge="1" parent="1">
          <mxGeometry width="50" height="50" relative="1" as="geometry">
            <mxPoint x="190" y="252" as="sourcePoint" />
            <mxPoint x="190" y="192" as="targetPoint" />
            <Array as="points">
              <mxPoint x="180" y="222" />
            </Array>
          </mxGeometry>
        </mxCell>
        <mxCell id="PoCtsGAYJzP5PrlAFtWP-5" value="" style="endArrow=none;html=1;rounded=0;startArrow=classic;startFill=1;endFill=0;" edge="1" parent="1">
          <mxGeometry width="50" height="50" relative="1" as="geometry">
            <mxPoint x="240" y="252" as="sourcePoint" />
            <mxPoint x="240" y="192" as="targetPoint" />
            <Array as="points">
              <mxPoint x="250" y="222" />
            </Array>
          </mxGeometry>
        </mxCell>
        <mxCell id="PoCtsGAYJzP5PrlAFtWP-6" value="New&lt;br&gt;video?" style="text;html=1;strokeColor=none;fillColor=none;align=center;verticalAlign=middle;whiteSpace=wrap;rounded=0;fontSize=19;" vertex="1" parent="1">
          <mxGeometry x="80" y="206" width="80" height="30" as="geometry" />
        </mxCell>
        <mxCell id="PoCtsGAYJzP5PrlAFtWP-7" value="&lt;b&gt;&lt;i&gt;Yes&lt;/i&gt;&lt;/b&gt;:&lt;br&gt;Video ID" style="text;html=1;strokeColor=none;fillColor=none;align=center;verticalAlign=middle;whiteSpace=wrap;rounded=0;fontSize=19;" vertex="1" parent="1">
          <mxGeometry x="258" y="202" width="80" height="30" as="geometry" />
        </mxCell>
        <mxCell id="PoCtsGAYJzP5PrlAFtWP-9" value="&lt;font style=&quot;font-size: 24px;&quot;&gt;&lt;b&gt;Listener&lt;/b&gt;&lt;/font&gt;" style="rounded=1;whiteSpace=wrap;html=1;" vertex="1" parent="1">
          <mxGeometry x="130" y="254" width="160" height="110" as="geometry" />
        </mxCell>
        <mxCell id="PoCtsGAYJzP5PrlAFtWP-10" value="&lt;font style=&quot;&quot;&gt;&lt;b style=&quot;&quot;&gt;&lt;font style=&quot;font-size: 22px;&quot;&gt;Get QR from thumbnail&lt;/font&gt;&lt;span style=&quot;font-size: 13px;&quot;&gt;&amp;nbsp;&lt;br&gt;&amp;nbsp;&lt;/span&gt;&lt;/b&gt;&lt;/font&gt;" style="rounded=1;whiteSpace=wrap;html=1;horizontal=1;" vertex="1" parent="1">
          <mxGeometry x="330" y="254" width="160" height="110" as="geometry" />
        </mxCell>
        <mxCell id="PoCtsGAYJzP5PrlAFtWP-11" value="" style="endArrow=classic;html=1;rounded=0;exitX=1;exitY=0.5;exitDx=0;exitDy=0;entryX=0;entryY=0.5;entryDx=0;entryDy=0;" edge="1" parent="1" source="PoCtsGAYJzP5PrlAFtWP-9" target="PoCtsGAYJzP5PrlAFtWP-10">
          <mxGeometry width="50" height="50" relative="1" as="geometry">
            <mxPoint x="300" y="310" as="sourcePoint" />
            <mxPoint x="350" y="260" as="targetPoint" />
          </mxGeometry>
        </mxCell>
        <mxCell id="PoCtsGAYJzP5PrlAFtWP-13" value="&lt;b style=&quot;&quot;&gt;&lt;font style=&quot;font-size: 22px;&quot;&gt;Decrypt AES value from QR&lt;br&gt;&lt;br&gt;&lt;/font&gt;&lt;/b&gt;" style="rounded=1;whiteSpace=wrap;html=1;" vertex="1" parent="1">
          <mxGeometry x="537" y="254" width="160" height="110" as="geometry" />
        </mxCell>
        <mxCell id="PoCtsGAYJzP5PrlAFtWP-14" value="" style="endArrow=classic;html=1;rounded=0;exitX=1;exitY=0.5;exitDx=0;exitDy=0;entryX=0;entryY=0.5;entryDx=0;entryDy=0;" edge="1" parent="1" target="PoCtsGAYJzP5PrlAFtWP-13">
          <mxGeometry width="50" height="50" relative="1" as="geometry">
            <mxPoint x="490" y="309" as="sourcePoint" />
            <mxPoint x="550" y="260" as="targetPoint" />
          </mxGeometry>
        </mxCell>
        <mxCell id="PoCtsGAYJzP5PrlAFtWP-15" value="&lt;b style=&quot;&quot;&gt;&lt;font style=&quot;font-size: 24px;&quot;&gt;Execute command&lt;/font&gt;&lt;/b&gt;" style="rounded=1;whiteSpace=wrap;html=1;" vertex="1" parent="1">
          <mxGeometry x="750" y="254" width="160" height="110" as="geometry" />
        </mxCell>
        <mxCell id="PoCtsGAYJzP5PrlAFtWP-16" value="" style="endArrow=classic;html=1;rounded=0;exitX=1;exitY=0.5;exitDx=0;exitDy=0;entryX=0;entryY=0.5;entryDx=0;entryDy=0;" edge="1" parent="1" target="PoCtsGAYJzP5PrlAFtWP-15" source="PoCtsGAYJzP5PrlAFtWP-13">
          <mxGeometry width="50" height="50" relative="1" as="geometry">
            <mxPoint x="702" y="309" as="sourcePoint" />
            <mxPoint x="762" y="260" as="targetPoint" />
          </mxGeometry>
        </mxCell>
        <mxCell id="PoCtsGAYJzP5PrlAFtWP-17" value="ID" style="text;html=1;strokeColor=none;fillColor=none;align=center;verticalAlign=middle;whiteSpace=wrap;rounded=0;fontSize=19;" vertex="1" parent="1">
          <mxGeometry x="288" y="270" width="40" height="30" as="geometry" />
        </mxCell>
        <mxCell id="PoCtsGAYJzP5PrlAFtWP-18" value="QR" style="text;html=1;strokeColor=none;fillColor=none;align=center;verticalAlign=middle;whiteSpace=wrap;rounded=0;fontSize=19;" vertex="1" parent="1">
          <mxGeometry x="471" y="270" width="80" height="30" as="geometry" />
        </mxCell>
        <mxCell id="PoCtsGAYJzP5PrlAFtWP-19" value="Cmd" style="text;html=1;strokeColor=none;fillColor=none;align=center;verticalAlign=middle;whiteSpace=wrap;rounded=0;fontSize=19;" vertex="1" parent="1">
          <mxGeometry x="682" y="270" width="80" height="30" as="geometry" />
        </mxCell>
        <mxCell id="PoCtsGAYJzP5PrlAFtWP-23" value="&lt;font style=&quot;&quot;&gt;&lt;b style=&quot;&quot;&gt;&lt;font style=&quot;font-size: 22px;&quot;&gt;DNS exfiltration&lt;/font&gt;&lt;br&gt;&lt;br&gt;&lt;/b&gt;&lt;/font&gt;" style="rounded=1;whiteSpace=wrap;html=1;" vertex="1" parent="1">
          <mxGeometry x="1001" y="253" width="160" height="110" as="geometry" />
        </mxCell>
        <mxCell id="PoCtsGAYJzP5PrlAFtWP-25" value="Cmd&lt;br&gt;response" style="text;html=1;strokeColor=none;fillColor=none;align=center;verticalAlign=middle;whiteSpace=wrap;rounded=0;fontSize=19;" vertex="1" parent="1">
          <mxGeometry x="915" y="265" width="80" height="30" as="geometry" />
        </mxCell>
        <mxCell id="PoCtsGAYJzP5PrlAFtWP-29" value="" style="endArrow=classic;html=1;rounded=0;entryX=0.5;entryY=1;entryDx=0;entryDy=0;" edge="1" parent="1" target="PoCtsGAYJzP5PrlAFtWP-9">
          <mxGeometry width="50" height="50" relative="1" as="geometry">
            <mxPoint x="1084.8899999999999" y="366" as="sourcePoint" />
            <mxPoint x="460" y="364" as="targetPoint" />
            <Array as="points">
              <mxPoint x="1085" y="440" />
              <mxPoint x="210" y="440" />
            </Array>
          </mxGeometry>
        </mxCell>
        <mxCell id="PoCtsGAYJzP5PrlAFtWP-30" value="" style="endArrow=classic;html=1;rounded=0;exitX=1;exitY=0.5;exitDx=0;exitDy=0;entryX=0;entryY=0.5;entryDx=0;entryDy=0;" edge="1" parent="1" target="PoCtsGAYJzP5PrlAFtWP-23">
          <mxGeometry width="50" height="50" relative="1" as="geometry">
            <mxPoint x="910" y="308.58" as="sourcePoint" />
            <mxPoint x="963" y="308.58" as="targetPoint" />
          </mxGeometry>
        </mxCell>
        <mxCell id="PoCtsGAYJzP5PrlAFtWP-33" value="Back to sleep and check for new videos" style="text;html=1;strokeColor=none;fillColor=none;align=center;verticalAlign=middle;whiteSpace=wrap;rounded=0;fontSize=19;" vertex="1" parent="1">
          <mxGeometry x="471" y="450" width="360" height="30" as="geometry" />
        </mxCell>
        <mxCell id="PoCtsGAYJzP5PrlAFtWP-34" value="" style="shape=image;html=1;verticalAlign=top;verticalLabelPosition=bottom;labelBackgroundColor=#ffffff;imageAspect=0;aspect=fixed;image=https://cdn1.iconfinder.com/data/icons/ionicons-outline-vol-2/512/qr-code-outline-128.png" vertex="1" parent="1">
          <mxGeometry x="392.5" y="328" width="35" height="35" as="geometry" />
        </mxCell>
        <mxCell id="PoCtsGAYJzP5PrlAFtWP-35" value="" style="dashed=0;outlineConnect=0;html=1;align=center;labelPosition=center;verticalLabelPosition=bottom;verticalAlign=top;shape=mxgraph.weblogos.youtube_2;fillColor=#FF2626;gradientColor=#B5171F" vertex="1" parent="1">
          <mxGeometry x="195" y="160" width="30" height="22.6" as="geometry" />
        </mxCell>
        <mxCell id="PoCtsGAYJzP5PrlAFtWP-36" value="" style="fillColor=#28A8E0;verticalLabelPosition=bottom;sketch=0;html=1;strokeColor=#ffffff;verticalAlign=top;align=center;points=[[0.145,0.145,0],[0.5,0,0],[0.855,0.145,0],[1,0.5,0],[0.855,0.855,0],[0.5,1,0],[0.145,0.855,0],[0,0.5,0]];pointerEvents=1;shape=mxgraph.cisco_safe.compositeIcon;bgIcon=ellipse;resIcon=mxgraph.cisco_safe.capability.dns;" vertex="1" parent="1">
          <mxGeometry x="1066" y="328" width="30" height="30" as="geometry" />
        </mxCell>
        <mxCell id="PoCtsGAYJzP5PrlAFtWP-39" value="" style="sketch=0;outlineConnect=0;fontColor=#232F3E;gradientColor=none;fillColor=#DD344C;strokeColor=none;dashed=0;verticalLabelPosition=bottom;verticalAlign=top;align=center;html=1;fontSize=12;fontStyle=0;aspect=fixed;pointerEvents=1;shape=mxgraph.aws4.encrypted_data;" vertex="1" parent="1">
          <mxGeometry x="602.6899999999999" y="325" width="28.62" height="36" as="geometry" />
        </mxCell>
      </root>
    </mxGraphModel>
  </diagram>
</mxfile>
